<?xml version="1.0" encoding="UTF-8" standalone="no"?>
<!DOCTYPE svg PUBLIC "-//W3C//DTD SVG 1.1//EN"
 "http://www.w3.org/Graphics/SVG/1.1/DTD/svg11.dtd">
<!-- Generated by graphviz version 2.43.0 (0)
 -->
<!-- Pages: 1 -->
<svg width="202pt" height="344pt"
 viewBox="0.00 0.00 202.00 344.00" xmlns="http://www.w3.org/2000/svg" xmlns:xlink="http://www.w3.org/1999/xlink">
<g id="graph0" class="graph" transform="scale(1 1) rotate(0) translate(4 340)">
<polygon fill="white" stroke="transparent" points="-4,4 -4,-340 198,-340 198,4 -4,4"/>
<g id="clust1" class="cluster">
<title>cluster_localhost</title>
<polygon fill="none" stroke="black" points="0,0 0,-336 163,-336 163,0 0,0"/>
<text text-anchor="middle" x="81.5" y="-320.8" font-family="Times,serif" font-size="14.00">localhost</text>
</g>
<!-- localhost::log_broker -->
<g id="node1" class="node">
<title>localhost::log_broker</title>
<ellipse fill="none" stroke="black" cx="63" cy="-26" rx="49.5" ry="18"/>
<text text-anchor="middle" x="63" y="-22.3" font-family="Times,serif" font-size="14.00">log_broker</text>
</g>
<!-- localhost::log_broker&#45;&gt;localhost::log_broker -->
<g id="edge1" class="edge">
<title>localhost::log_broker&#45;&gt;localhost::log_broker</title>
<path fill="none" stroke="black" d="M107.72,-33.84C120.52,-33.54 130.4,-30.92 130.4,-26 130.4,-22.54 125.51,-20.22 118.17,-19.04"/>
<polygon fill="black" stroke="black" points="117.98,-15.51 107.72,-18.16 117.39,-22.49 117.98,-15.51"/>
<text text-anchor="middle" x="139.4" y="-22.3" font-family="Times,serif" font-size="14.00">log</text>
</g>
<!-- localhost::server -->
<g id="node2" class="node">
<title>localhost::server</title>
<ellipse fill="none" stroke="black" cx="94" cy="-113" rx="32.5" ry="18"/>
<text text-anchor="middle" x="94" y="-109.3" font-family="Times,serif" font-size="14.00">server</text>
</g>
<!-- localhost::server&#45;&gt;localhost::log_broker -->
<g id="edge2" class="edge">
<title>localhost::server&#45;&gt;localhost::log_broker</title>
<path fill="none" stroke="black" d="M87.88,-95.21C83.57,-83.41 77.73,-67.38 72.78,-53.82"/>
<polygon fill="black" stroke="black" points="75.93,-52.24 69.22,-44.05 69.36,-54.64 75.93,-52.24"/>
<text text-anchor="middle" x="89" y="-65.8" font-family="Times,serif" font-size="14.00">log</text>
</g>
<!-- localhost::ivcurve -->
<g id="node3" class="node">
<title>localhost::ivcurve</title>
<ellipse fill="none" stroke="black" cx="45" cy="-200" rx="37.09" ry="18"/>
<text text-anchor="middle" x="45" y="-196.3" font-family="Times,serif" font-size="14.00">ivcurve</text>
</g>
<!-- localhost::ivcurve&#45;&gt;localhost::log_broker -->
<g id="edge3" class="edge">
<title>localhost::ivcurve&#45;&gt;localhost::log_broker</title>
<path fill="none" stroke="black" d="M40.35,-181.92C35.39,-161.19 29.02,-125.25 35,-95 37.85,-80.57 43.81,-65.36 49.5,-52.99"/>
<polygon fill="black" stroke="black" points="52.76,-54.28 53.94,-43.75 46.45,-51.25 52.76,-54.28"/>
<text text-anchor="middle" x="44" y="-109.3" font-family="Times,serif" font-size="14.00">log</text>
</g>
<!-- localhost::ivcurve&#45;&gt;localhost::server -->
<g id="edge4" class="edge">
<title>localhost::ivcurve&#45;&gt;localhost::server</title>
<path fill="none" stroke="black" d="M54.68,-182.21C61.71,-170.02 71.33,-153.32 79.31,-139.49"/>
<polygon fill="black" stroke="black" points="82.54,-140.88 84.51,-130.47 76.48,-137.38 82.54,-140.88"/>
<text text-anchor="middle" x="133" y="-152.8" font-family="Times,serif" font-size="14.00">servers(source, meter)</text>
</g>
<!-- localhost::ivcurve_gui -->
<g id="node4" class="node">
<title>localhost::ivcurve_gui</title>
<ellipse fill="none" stroke="black" cx="61" cy="-287" rx="52.79" ry="18"/>
<text text-anchor="middle" x="61" y="-283.3" font-family="Times,serif" font-size="14.00">ivcurve_gui</text>
</g>
<!-- localhost::ivcurve_gui&#45;&gt;localhost::ivcurve -->
<g id="edge5" class="edge">
<title>localhost::ivcurve_gui&#45;&gt;localhost::ivcurve</title>
<path fill="none" stroke="black" d="M57.76,-268.8C55.57,-257.16 52.63,-241.55 50.13,-228.24"/>
<polygon fill="black" stroke="black" points="53.52,-227.36 48.23,-218.18 46.64,-228.65 53.52,-227.36"/>
<text text-anchor="middle" x="73.5" y="-239.8" font-family="Times,serif" font-size="14.00">ivcurve</text>
</g>
</g>
</svg>
