<?xml version="1.0" encoding="UTF-8" standalone="no"?>
<!DOCTYPE svg PUBLIC "-//W3C//DTD SVG 1.1//EN"
 "http://www.w3.org/Graphics/SVG/1.1/DTD/svg11.dtd">
<!-- Generated by graphviz version 2.43.0 (0)
 -->
<!-- Pages: 1 -->
<svg width="202pt" height="344pt"
 viewBox="0.00 0.00 202.00 344.00" xmlns="http://www.w3.org/2000/svg" xmlns:xlink="http://www.w3.org/1999/xlink">
<g id="graph0" class="graph" transform="scale(1 1) rotate(0) translate(4 340)">
<polygon fill="white" stroke="transparent" points="-4,4 -4,-340 198,-340 198,4 -4,4"/>
<g id="clust1" class="cluster">
<title>cluster_localhost</title>
<polygon fill="none" stroke="black" points="0,0 0,-336 163,-336 163,0 0,0"/>
<text text-anchor="middle" x="81.5" y="-320.8" font-family="Times,serif" font-size="14.00">localhost</text>
</g>
<!-- localhost::log -->
<g id="node1" class="node">
<title>localhost::log</title>
<ellipse fill="none" stroke="black" cx="53" cy="-26" rx="27" ry="18"/>
<text text-anchor="middle" x="53" y="-22.3" font-family="Times,serif" font-size="14.00">log</text>
</g>
<!-- localhost::log&#45;&gt;localhost::log -->
<g id="edge1" class="edge">
<title>localhost::log&#45;&gt;localhost::log</title>
<path fill="none" stroke="black" d="M77.53,-33.75C88.51,-34.49 98,-31.91 98,-26 98,-22.03 93.72,-19.56 87.57,-18.59"/>
<polygon fill="black" stroke="black" points="87.65,-15.09 77.53,-18.25 87.41,-22.09 87.65,-15.09"/>
<text text-anchor="middle" x="107" y="-22.3" font-family="Times,serif" font-size="14.00">log</text>
</g>
<!-- localhost::server -->
<g id="node2" class="node">
<title>localhost::server</title>
<ellipse fill="none" stroke="black" cx="94" cy="-113" rx="32.5" ry="18"/>
<text text-anchor="middle" x="94" y="-109.3" font-family="Times,serif" font-size="14.00">server</text>
</g>
<!-- localhost::server&#45;&gt;localhost::log -->
<g id="edge2" class="edge">
<title>localhost::server&#45;&gt;localhost::log</title>
<path fill="none" stroke="black" d="M85.9,-95.21C80.02,-83.02 71.97,-66.32 65.3,-52.49"/>
<polygon fill="black" stroke="black" points="68.44,-50.96 60.94,-43.47 62.14,-54 68.44,-50.96"/>
<text text-anchor="middle" x="84" y="-65.8" font-family="Times,serif" font-size="14.00">log</text>
</g>
<!-- localhost::ivcurve -->
<g id="node3" class="node">
<title>localhost::ivcurve</title>
<ellipse fill="none" stroke="black" cx="45" cy="-200" rx="37.09" ry="18"/>
<text text-anchor="middle" x="45" y="-196.3" font-family="Times,serif" font-size="14.00">ivcurve</text>
</g>
<!-- localhost::ivcurve&#45;&gt;localhost::log -->
<g id="edge3" class="edge">
<title>localhost::ivcurve&#45;&gt;localhost::log</title>
<path fill="none" stroke="black" d="M41.03,-182.03C36.74,-161.41 31.02,-125.58 35,-95 36.81,-81.09 40.62,-65.98 44.27,-53.54"/>
<polygon fill="black" stroke="black" points="47.67,-54.39 47.25,-43.8 40.97,-52.34 47.67,-54.39"/>
<text text-anchor="middle" x="44" y="-109.3" font-family="Times,serif" font-size="14.00">log</text>
</g>
<!-- localhost::ivcurve&#45;&gt;localhost::server -->
<g id="edge4" class="edge">
<title>localhost::ivcurve&#45;&gt;localhost::server</title>
<path fill="none" stroke="black" d="M54.68,-182.21C61.71,-170.02 71.33,-153.32 79.31,-139.49"/>
<polygon fill="black" stroke="black" points="82.54,-140.88 84.51,-130.47 76.48,-137.38 82.54,-140.88"/>
<text text-anchor="middle" x="133" y="-152.8" font-family="Times,serif" font-size="14.00">servers(source, meter)</text>
</g>
<!-- localhost::ivcurve_gui -->
<g id="node4" class="node">
<title>localhost::ivcurve_gui</title>
<ellipse fill="none" stroke="black" cx="61" cy="-287" rx="52.79" ry="18"/>
<text text-anchor="middle" x="61" y="-283.3" font-family="Times,serif" font-size="14.00">ivcurve_gui</text>
</g>
<!-- localhost::ivcurve_gui&#45;&gt;localhost::ivcurve -->
<g id="edge5" class="edge">
<title>localhost::ivcurve_gui&#45;&gt;localhost::ivcurve</title>
<path fill="none" stroke="black" d="M57.76,-268.8C55.57,-257.16 52.63,-241.55 50.13,-228.24"/>
<polygon fill="black" stroke="black" points="53.52,-227.36 48.23,-218.18 46.64,-228.65 53.52,-227.36"/>
<text text-anchor="middle" x="73.5" y="-239.8" font-family="Times,serif" font-size="14.00">ivcurve</text>
</g>
</g>
</svg>
