<?xml version="1.0" encoding="UTF-8" standalone="no"?>
<!DOCTYPE svg PUBLIC "-//W3C//DTD SVG 1.1//EN"
 "http://www.w3.org/Graphics/SVG/1.1/DTD/svg11.dtd">
<!-- Generated by graphviz version 2.43.0 (0)
 -->
<!-- Pages: 1 -->
<svg width="286pt" height="365pt"
 viewBox="0.00 0.00 286.42 365.00" xmlns="http://www.w3.org/2000/svg" xmlns:xlink="http://www.w3.org/1999/xlink">
<g id="graph0" class="graph" transform="scale(1 1) rotate(0) translate(4 361)">
<polygon fill="white" stroke="transparent" points="-4,4 -4,-361 282.42,-361 282.42,4 -4,4"/>
<g id="clust1" class="cluster">
<title>cluster_localhost</title>
<polygon fill="none" stroke="black" points="106.43,0 106.43,-357 278.42,-357 278.42,0 106.43,0"/>
<text text-anchor="middle" x="192.42" y="-341.8" font-family="Times,serif" font-size="14.00">localhost</text>
</g>
<g id="clust2" class="cluster">
<title>cluster_localhost_server_ivcurve</title>
<polygon fill="none" stroke="black" points="114.43,-87 114.43,-249 270.42,-249 270.42,-87 114.43,-87"/>
<text text-anchor="middle" x="192.42" y="-233.8" font-family="Times,serif" font-size="14.00">thread(server_ivcurve)</text>
</g>
<!-- localhost::server -->
<g id="node1" class="node">
<title>localhost::server</title>
<ellipse fill="none" stroke="black" cx="169.42" cy="-113" rx="32.5" ry="18"/>
<text text-anchor="middle" x="169.42" y="-109.3" font-family="Times,serif" font-size="14.00">server</text>
</g>
<!-- localhost::log -->
<g id="node3" class="node">
<title>localhost::log</title>
<ellipse fill="none" stroke="black" cx="193.42" cy="-26" rx="27" ry="18"/>
<text text-anchor="middle" x="193.42" y="-22.3" font-family="Times,serif" font-size="14.00">log</text>
</g>
<!-- localhost::server&#45;&gt;localhost::log -->
<g id="edge2" class="edge">
<title>localhost::server&#45;&gt;localhost::log</title>
<path fill="none" stroke="black" d="M174.28,-94.8C177.62,-82.97 182.12,-67.03 185.92,-53.58"/>
<polygon fill="black" stroke="black" points="189.31,-54.46 188.66,-43.88 182.57,-52.56 189.31,-54.46"/>
<text text-anchor="middle" x="191.42" y="-65.8" font-family="Times,serif" font-size="14.00">log</text>
</g>
<!-- localhost::ivcurve -->
<g id="node2" class="node">
<title>localhost::ivcurve</title>
<ellipse fill="none" stroke="black" cx="192.42" cy="-200" rx="37.09" ry="18"/>
<text text-anchor="middle" x="192.42" y="-196.3" font-family="Times,serif" font-size="14.00">ivcurve</text>
</g>
<!-- localhost::ivcurve&#45;&gt;localhost::server -->
<g id="edge1" class="edge">
<title>localhost::ivcurve&#45;&gt;localhost::server</title>
<path fill="none" stroke="black" d="M155.75,-196.42C112.4,-192.52 44.13,-183.41 28.43,-164 0,-128.86 75.37,-118.39 126.55,-115.29"/>
<polygon fill="black" stroke="black" points="126.95,-118.77 136.75,-114.75 126.58,-111.78 126.95,-118.77"/>
<text text-anchor="middle" x="89.43" y="-152.8" font-family="Times,serif" font-size="14.00">servers(source, meter)</text>
</g>
<!-- localhost::ivcurve&#45;&gt;localhost::log -->
<g id="edge3" class="edge">
<title>localhost::ivcurve&#45;&gt;localhost::log</title>
<path fill="none" stroke="black" d="M198.18,-182.2C202.52,-168.58 208.11,-148.8 210.42,-131 212.95,-111.61 212.72,-106.42 210.42,-87 209.09,-75.71 205.99,-63.59 202.8,-53.22"/>
<polygon fill="black" stroke="black" points="206.07,-51.94 199.64,-43.52 199.41,-54.11 206.07,-51.94"/>
<text text-anchor="middle" x="220.42" y="-109.3" font-family="Times,serif" font-size="14.00">log</text>
</g>
<!-- localhost::log&#45;&gt;localhost::log -->
<g id="edge4" class="edge">
<title>localhost::log&#45;&gt;localhost::log</title>
<path fill="none" stroke="black" d="M217.96,-33.75C228.93,-34.49 238.42,-31.91 238.42,-26 238.42,-22.03 234.14,-19.56 228,-18.59"/>
<polygon fill="black" stroke="black" points="228.08,-15.09 217.96,-18.25 227.84,-22.09 228.08,-15.09"/>
<text text-anchor="middle" x="247.42" y="-22.3" font-family="Times,serif" font-size="14.00">log</text>
</g>
<!-- localhost::ivcurve_gui -->
<g id="node4" class="node">
<title>localhost::ivcurve_gui</title>
<ellipse fill="none" stroke="black" cx="192.42" cy="-308" rx="52.79" ry="18"/>
<text text-anchor="middle" x="192.42" y="-304.3" font-family="Times,serif" font-size="14.00">ivcurve_gui</text>
</g>
<!-- localhost::ivcurve_gui&#45;&gt;localhost::ivcurve -->
<g id="edge5" class="edge">
<title>localhost::ivcurve_gui&#45;&gt;localhost::ivcurve</title>
<path fill="none" stroke="black" d="M192.42,-289.97C192.42,-273.38 192.42,-247.88 192.42,-228.43"/>
<polygon fill="black" stroke="black" points="195.92,-228.34 192.42,-218.34 188.92,-228.34 195.92,-228.34"/>
<text text-anchor="middle" x="212.92" y="-260.8" font-family="Times,serif" font-size="14.00">ivcurve</text>
</g>
</g>
</svg>
